<svg width="1440" height="573" fill="none" xmlns="http://www.w3.org/2000/svg"><path fill="url(#paint0_linear)" d="M0 3h1440v570H0z"/><g filter="url(#filter0_d)"><path d="M1439.5 410c-30.65 0-55.5 24.624-55.5 55h55.5v-55z" fill="#fff"/></g><path d="M0 530.51c202.703 0 347.472-34.877 480.333-32.752 309.407 4.947 163.306-142.076 480.334-142.076C1305.86 355.682 1223.24 226 1441 226" stroke="#5F82FF" stroke-width="3"/><path d="M480.333 497.758C347.472 495.633 202.703 530.51 0 530.51V573h1441V226c-217.76 0-135.14 129.682-480.333 129.682-317.028 0-170.927 147.023-480.334 142.076z" fill="url(#paint1_linear)" fill-opacity=".4"/><g filter="url(#filter1_d)"><path d="M264.72 401.48c-6.473 0-11.72 5.35-11.72 11.949h23.441c0-6.599-5.247-11.949-11.721-11.949z" fill="#fff"/></g><g filter="url(#filter2_d)"><path d="M310.683 407.455c-9.011 0-16.317 7.407-16.317 16.545H327c0-9.138-7.305-16.545-16.317-16.545z" fill="#fff"/></g><g filter="url(#filter3_d)"><path d="M286.093 399.182c-13.707 0-24.82 11.111-24.82 24.818h49.64c0-13.707-11.112-24.818-24.82-24.818z" fill="#fff"/></g><g filter="url(#filter4_d)"><path d="M1262.91 56c-21.49 0-38.91 17.46-38.91 39h77.81c0-21.54-17.42-39-38.9-39z" fill="#fff"/></g><g filter="url(#filter5_d)"><path d="M1279.5 89c-12.43 0-22.5 10.297-22.5 23h45c0-12.703-10.07-23-22.5-23z" fill="#fff"/></g><g filter="url(#filter6_d)"><path d="M275.5 95c-12.426 0-22.5 10.297-22.5 23h45c0-12.703-10.074-23-22.5-23z" fill="#fff"/></g><g filter="url(#filter7_d)"><path d="M75 255c0-41.974-33.355-76-74.5-76v76H75z" fill="#fff"/></g><g filter="url(#filter8_d)"><path d="M317.112 389c-5.461 0-9.888 4.559-9.888 10.182H327c0-5.623-4.427-10.182-9.888-10.182z" fill="#fff"/></g><g filter="url(#filter9_d)"><path d="M1223.5 40c-8.56 0-15.5 7.163-15.5 16h31c0-8.837-6.94-16-15.5-16z" fill="#fff"/></g><defs><filter id="filter0_d" x="1339" y="370" width="145.5" height="145" filterUnits="userSpaceOnUse" color-interpolation-filters="sRGB"><feFlood flood-opacity="0" result="BackgroundImageFix"/><feColorMatrix in="SourceAlpha" values="0 0 0 0 0 0 0 0 0 0 0 0 0 0 0 0 0 0 127 0"/><feOffset dy="5"/><feGaussianBlur stdDeviation="22.5"/><feColorMatrix values="0 0 0 0 0.593724 0 0 0 0 0.684469 0 0 0 0 0.888646 0 0 0 0.1 0"/><feBlend in2="BackgroundImageFix" result="effect1_dropShadow"/><feBlend in="SourceGraphic" in2="effect1_dropShadow" result="shape"/></filter><filter id="filter1_d" x="208" y="361.48" width="113.441" height="101.949" filterUnits="userSpaceOnUse" color-interpolation-filters="sRGB"><feFlood flood-opacity="0" result="BackgroundImageFix"/><feColorMatrix in="SourceAlpha" values="0 0 0 0 0 0 0 0 0 0 0 0 0 0 0 0 0 0 127 0"/><feOffset dy="5"/><feGaussianBlur stdDeviation="22.5"/><feColorMatrix values="0 0 0 0 0.593724 0 0 0 0 0.684469 0 0 0 0 0.888646 0 0 0 0.1 0"/><feBlend in2="BackgroundImageFix" result="effect1_dropShadow"/><feBlend in="SourceGraphic" in2="effect1_dropShadow" result="shape"/></filter><filter id="filter2_d" x="249.366" y="367.455" width="122.634" height="106.545" filterUnits="userSpaceOnUse" color-interpolation-filters="sRGB"><feFlood flood-opacity="0" result="BackgroundImageFix"/><feColorMatrix in="SourceAlpha" values="0 0 0 0 0 0 0 0 0 0 0 0 0 0 0 0 0 0 127 0"/><feOffset dy="5"/><feGaussianBlur stdDeviation="22.5"/><feColorMatrix values="0 0 0 0 0.593724 0 0 0 0 0.684469 0 0 0 0 0.888646 0 0 0 0.1 0"/><feBlend in2="BackgroundImageFix" result="effect1_dropShadow"/><feBlend in="SourceGraphic" in2="effect1_dropShadow" result="shape"/></filter><filter id="filter3_d" x="216.273" y="359.182" width="139.64" height="114.818" filterUnits="userSpaceOnUse" color-interpolation-filters="sRGB"><feFlood flood-opacity="0" result="BackgroundImageFix"/><feColorMatrix in="SourceAlpha" values="0 0 0 0 0 0 0 0 0 0 0 0 0 0 0 0 0 0 127 0"/><feOffset dy="5"/><feGaussianBlur stdDeviation="22.5"/><feColorMatrix values="0 0 0 0 0.593724 0 0 0 0 0.684469 0 0 0 0 0.888646 0 0 0 0.1 0"/><feBlend in2="BackgroundImageFix" result="effect1_dropShadow"/><feBlend in="SourceGraphic" in2="effect1_dropShadow" result="shape"/></filter><filter id="filter4_d" x="1179" y="16" width="167.814" height="129" filterUnits="userSpaceOnUse" color-interpolation-filters="sRGB"><feFlood flood-opacity="0" result="BackgroundImageFix"/><feColorMatrix in="SourceAlpha" values="0 0 0 0 0 0 0 0 0 0 0 0 0 0 0 0 0 0 127 0"/><feOffset dy="5"/><feGaussianBlur stdDeviation="22.5"/><feColorMatrix values="0 0 0 0 0.593724 0 0 0 0 0.684469 0 0 0 0 0.888646 0 0 0 0.1 0"/><feBlend in2="BackgroundImageFix" result="effect1_dropShadow"/><feBlend in="SourceGraphic" in2="effect1_dropShadow" result="shape"/></filter><filter id="filter5_d" x="1212" y="49" width="135" height="113" filterUnits="userSpaceOnUse" color-interpolation-filters="sRGB"><feFlood flood-opacity="0" result="BackgroundImageFix"/><feColorMatrix in="SourceAlpha" values="0 0 0 0 0 0 0 0 0 0 0 0 0 0 0 0 0 0 127 0"/><feOffset dy="5"/><feGaussianBlur stdDeviation="22.5"/><feColorMatrix values="0 0 0 0 0.593724 0 0 0 0 0.684469 0 0 0 0 0.888646 0 0 0 0.1 0"/><feBlend in2="BackgroundImageFix" result="effect1_dropShadow"/><feBlend in="SourceGraphic" in2="effect1_dropShadow" result="shape"/></filter><filter id="filter6_d" x="208" y="55" width="135" height="113" filterUnits="userSpaceOnUse" color-interpolation-filters="sRGB"><feFlood flood-opacity="0" result="BackgroundImageFix"/><feColorMatrix in="SourceAlpha" values="0 0 0 0 0 0 0 0 0 0 0 0 0 0 0 0 0 0 127 0"/><feOffset dy="5"/><feGaussianBlur stdDeviation="22.5"/><feColorMatrix values="0 0 0 0 0.593724 0 0 0 0 0.684469 0 0 0 0 0.888646 0 0 0 0.1 0"/><feBlend in2="BackgroundImageFix" result="effect1_dropShadow"/><feBlend in="SourceGraphic" in2="effect1_dropShadow" result="shape"/></filter><filter id="filter7_d" x="-44.5" y="139" width="164.5" height="166" filterUnits="userSpaceOnUse" color-interpolation-filters="sRGB"><feFlood flood-opacity="0" result="BackgroundImageFix"/><feColorMatrix in="SourceAlpha" values="0 0 0 0 0 0 0 0 0 0 0 0 0 0 0 0 0 0 127 0"/><feOffset dy="5"/><feGaussianBlur stdDeviation="22.5"/><feColorMatrix values="0 0 0 0 0.593724 0 0 0 0 0.684469 0 0 0 0 0.888646 0 0 0 0.1 0"/><feBlend in2="BackgroundImageFix" result="effect1_dropShadow"/><feBlend in="SourceGraphic" in2="effect1_dropShadow" result="shape"/></filter><filter id="filter8_d" x="262.224" y="349" width="109.776" height="100.182" filterUnits="userSpaceOnUse" color-interpolation-filters="sRGB"><feFlood flood-opacity="0" result="BackgroundImageFix"/><feColorMatrix in="SourceAlpha" values="0 0 0 0 0 0 0 0 0 0 0 0 0 0 0 0 0 0 127 0"/><feOffset dy="5"/><feGaussianBlur stdDeviation="22.5"/><feColorMatrix values="0 0 0 0 0.593724 0 0 0 0 0.684469 0 0 0 0 0.888646 0 0 0 0.1 0"/><feBlend in2="BackgroundImageFix" result="effect1_dropShadow"/><feBlend in="SourceGraphic" in2="effect1_dropShadow" result="shape"/></filter><filter id="filter9_d" x="1163" y="0" width="121" height="106" filterUnits="userSpaceOnUse" color-interpolation-filters="sRGB"><feFlood flood-opacity="0" result="BackgroundImageFix"/><feColorMatrix in="SourceAlpha" values="0 0 0 0 0 0 0 0 0 0 0 0 0 0 0 0 0 0 127 0"/><feOffset dy="5"/><feGaussianBlur stdDeviation="22.5"/><feColorMatrix values="0 0 0 0 0.593724 0 0 0 0 0.684469 0 0 0 0 0.888646 0 0 0 0.1 0"/><feBlend in2="BackgroundImageFix" result="effect1_dropShadow"/><feBlend in="SourceGraphic" in2="effect1_dropShadow" result="shape"/></filter><linearGradient id="paint0_linear" x1="720" y1="3" x2="720" y2="573" gradientUnits="userSpaceOnUse"><stop stop-color="#F4F7FF"/><stop offset="1" stop-color="#F1F5FF"/></linearGradient><linearGradient id="paint1_linear" x1="278.466" y1="573.443" x2="278.466" y2="118.005" gradientUnits="userSpaceOnUse"><stop stop-color="#4B71FF" stop-opacity="0"/><stop offset="1" stop-color="#6B89F8"/></linearGradient></defs></svg>